<svg xmlns="http://www.w3.org/2000/svg" width="256" height="256" viewBox="0 0 256 256">
  <metadata><?xpacket begin="﻿" id="W5M0MpCehiHzreSzNTczkc9d"?>
<x:xmpmeta xmlns:x="adobe:ns:meta/" x:xmptk="Adobe XMP Core 5.6-c142 79.160924, 2017/07/13-01:06:39        ">
   <rdf:RDF xmlns:rdf="http://www.w3.org/1999/02/22-rdf-syntax-ns#">
      <rdf:Description rdf:about=""/>
   </rdf:RDF>
</x:xmpmeta>
                                                                                                    
                                                                                                    
                                                                                                    
                                                                                                    
                                                                                                    
                                                                                                    
                                                                                                    
                                                                                                    
                                                                                                    
                                                                                                    
                                                                                                    
                                                                                                    
                                                                                                    
                                                                                                    
                                                                                                    
                                                                                                    
                                                                                                    
                                                                                                    
                                                                                                    
                                                                                                    
                           
<?xpacket end="w"?></metadata>
<defs>
    <style>
      .cls-1 {
        fill: #4d648d;
        fill-rule: evenodd;
      }

      .cls-2 {
        fill: none;
        stroke: #4d648d;
        stroke-width: 19.17px;
      }
    </style>
  </defs>
  <path id="n" class="cls-1" d="M129.25,59.75A61.781,61.781,0,0,0,103.75,65a58.314,58.314,0,0,0-20,14.5V71a9.734,9.734,0,0,0-2.625-7,9.077,9.077,0,0,0-6.875-2.75A9.411,9.411,0,0,0,64.5,71V188.5a9.057,9.057,0,0,0,2.75,6.875,9.721,9.721,0,0,0,7,2.625,9.01,9.01,0,0,0,9.5-9.5v-74A32.162,32.162,0,0,1,89.5,95.875,39.01,39.01,0,0,1,105.125,82.75,50.416,50.416,0,0,1,127.25,78q20,0,32.375,11.625T172,123.5v65a9.162,9.162,0,0,0,2.75,6.75,9.466,9.466,0,0,0,7,2.75,9.391,9.391,0,0,0,9.5-9.5v-65q0-20-8-34.375A53.823,53.823,0,0,0,161.125,67.25a66.913,66.913,0,0,0-31.875-7.5h0Z"/>
  <circle id="Ovaal_1" data-name="Ovaal 1" class="cls-2" cx="128.5" cy="128.5" r="112.5"/>
</svg>
